<svg width="672" height="606" viewBox="0 0 672 606" fill="none" xmlns="http://www.w3.org/2000/svg">
<path d="M216.776 114.405C134.925 4.6762 410.819 -36.4084 537.924 46.0954C673.295 133.965 438.93 144.256 459.008 202.069C477.062 254.053 545.123 236.639 587.392 222.503C636.503 206.079 768.828 202.269 842.832 328.976C916.836 455.683 720.297 434.022 652.1 404.435C583.903 374.848 523.568 381.236 503.956 504.454C480.448 652.156 212.826 609.5 105.577 545.345C-112.619 414.823 62.8153 258.913 193.503 260.626C297.501 261.989 282.375 202.347 216.776 114.405Z" fill="url(#paint0_linear_1_3064)" fill-opacity="0.6" stroke="#C991FD" stroke-width="3"/>
<defs>
<linearGradient id="paint0_linear_1_3064" x1="525.27" y1="-14" x2="314.868" y2="522.395" gradientUnits="userSpaceOnUse">
<stop stop-color="#914FFB"/>
<stop offset="1" stop-color="#FA31FE"/>
</linearGradient>
</defs>
</svg>
