<svg width="154" height="19" viewBox="0 0 154 19" fill="none" xmlns="http://www.w3.org/2000/svg">
<path d="M0.845796 18V0.545454H12.4026V3.58807H4.53614V7.74716H11.6356V10.7898H4.53614V18H0.845796ZM20.4952 0.545454V18H16.8049V0.545454H20.4952ZM24.7866 3.58807V0.545454H39.1219V3.58807H33.7781V18H30.1304V3.58807H24.7866ZM50.8774 0.545454H55.4285L60.2353 12.2727H60.4399L65.2467 0.545454H69.7978V18H66.2183V6.6392H66.0734L61.5563 17.9148H59.1188L54.6018 6.59659H54.4569V18H50.8774V0.545454ZM78.4486 0.545454V18H74.7583V0.545454H78.4486ZM83.4049 18V0.545454H90.2912C91.6094 0.545454 92.7344 0.78125 93.6662 1.25284C94.6037 1.71875 95.3168 2.38068 95.8054 3.23864C96.2997 4.09091 96.5469 5.09375 96.5469 6.24716C96.5469 7.40625 96.2969 8.40341 95.7969 9.23864C95.2969 10.0682 94.5725 10.7045 93.6236 11.1477C92.6804 11.5909 91.5384 11.8125 90.1975 11.8125H85.5867V8.84659H89.6009C90.3054 8.84659 90.8907 8.75 91.3566 8.55682C91.8225 8.36364 92.1691 8.07386 92.3963 7.6875C92.6293 7.30114 92.7458 6.82102 92.7458 6.24716C92.7458 5.66761 92.6293 5.17898 92.3963 4.78125C92.1691 4.38352 91.8196 4.08239 91.348 3.87784C90.8821 3.66761 90.2941 3.5625 89.5838 3.5625H87.0952V18H83.4049ZM92.831 10.0568L97.1691 18H93.0952L88.8509 10.0568H92.831ZM101.075 18V0.545454H107.961C109.279 0.545454 110.404 0.78125 111.336 1.25284C112.274 1.71875 112.987 2.38068 113.475 3.23864C113.97 4.09091 114.217 5.09375 114.217 6.24716C114.217 7.40625 113.967 8.40341 113.467 9.23864C112.967 10.0682 112.242 10.7045 111.294 11.1477C110.35 11.5909 109.208 11.8125 107.867 11.8125H103.257V8.84659H107.271C107.975 8.84659 108.561 8.75 109.027 8.55682C109.492 8.36364 109.839 8.07386 110.066 7.6875C110.299 7.30114 110.416 6.82102 110.416 6.24716C110.416 5.66761 110.299 5.17898 110.066 4.78125C109.839 4.38352 109.49 4.08239 109.018 3.87784C108.552 3.66761 107.964 3.5625 107.254 3.5625H104.765V18H101.075ZM110.501 10.0568L114.839 18H110.765L106.521 10.0568H110.501ZM134.785 9.27273C134.785 11.1761 134.424 12.7955 133.702 14.1307C132.986 15.4659 132.009 16.4858 130.77 17.1903C129.537 17.8892 128.151 18.2386 126.611 18.2386C125.06 18.2386 123.668 17.8864 122.435 17.1818C121.202 16.4773 120.228 15.4574 119.512 14.1222C118.796 12.7869 118.438 11.1705 118.438 9.27273C118.438 7.36932 118.796 5.75 119.512 4.41477C120.228 3.07955 121.202 2.0625 122.435 1.36364C123.668 0.659091 125.06 0.306818 126.611 0.306818C128.151 0.306818 129.537 0.659091 130.77 1.36364C132.009 2.0625 132.986 3.07955 133.702 4.41477C134.424 5.75 134.785 7.36932 134.785 9.27273ZM131.043 9.27273C131.043 8.03977 130.858 7 130.489 6.15341C130.126 5.30682 129.611 4.66477 128.947 4.22727C128.282 3.78977 127.503 3.57102 126.611 3.57102C125.719 3.57102 124.941 3.78977 124.276 4.22727C123.611 4.66477 123.094 5.30682 122.725 6.15341C122.361 7 122.18 8.03977 122.18 9.27273C122.18 10.5057 122.361 11.5455 122.725 12.392C123.094 13.2386 123.611 13.8807 124.276 14.3182C124.941 14.7557 125.719 14.9744 126.611 14.9744C127.503 14.9744 128.282 14.7557 128.947 14.3182C129.611 13.8807 130.126 13.2386 130.489 12.392C130.858 11.5455 131.043 10.5057 131.043 9.27273ZM139.438 18V0.545454H146.325C147.643 0.545454 148.768 0.78125 149.7 1.25284C150.637 1.71875 151.35 2.38068 151.839 3.23864C152.333 4.09091 152.58 5.09375 152.58 6.24716C152.58 7.40625 152.33 8.40341 151.83 9.23864C151.33 10.0682 150.606 10.7045 149.657 11.1477C148.714 11.5909 147.572 11.8125 146.231 11.8125H141.62V8.84659H145.634C146.339 8.84659 146.924 8.75 147.39 8.55682C147.856 8.36364 148.202 8.07386 148.43 7.6875C148.663 7.30114 148.779 6.82102 148.779 6.24716C148.779 5.66761 148.663 5.17898 148.43 4.78125C148.202 4.38352 147.853 4.08239 147.381 3.87784C146.916 3.66761 146.327 3.5625 145.617 3.5625H143.129V18H139.438ZM148.864 10.0568L153.202 18H149.129L144.884 10.0568H148.864Z" fill="url(#paint0_linear_1_3083)"/>
<defs>
<linearGradient id="paint0_linear_1_3083" x1="76.5" y1="7.6875" x2="76.5" y2="17.9583" gradientUnits="userSpaceOnUse">
<stop stop-color="#14125F"/>
<stop offset="1" stop-color="#1E1C75" stop-opacity="0.21"/>
</linearGradient>
</defs>
</svg>
