<svg width="48" height="48" viewBox="0 0 48 48" fill="none" xmlns="http://www.w3.org/2000/svg">
<path d="M41.5 6.93838H35.8125V4.31338C35.8127 3.96528 35.6747 3.63135 35.4287 3.38504C35.1827 3.13874 34.849 3.00023 34.5009 3C34.1528 2.99977 33.8188 3.13783 33.5725 3.3838C33.3262 3.62978 33.1877 3.96353 33.1875 4.31163V6.93838H25.3125V4.31338C25.3126 4.14102 25.2788 3.97032 25.2129 3.81104C25.1471 3.65175 25.0505 3.507 24.9287 3.38504C24.8069 3.26308 24.6623 3.16631 24.5031 3.10024C24.3439 3.03418 24.1732 3.00012 24.0009 3C23.6528 2.99977 23.3188 3.13783 23.0725 3.3838C22.8262 3.62978 22.6877 3.96353 22.6875 4.31163V6.93838H14.8125V4.31338C14.8126 4.14102 14.7788 3.97032 14.7129 3.81104C14.6471 3.65175 14.5505 3.507 14.4287 3.38504C14.3069 3.26308 14.1623 3.16631 14.0031 3.10024C13.8439 3.03418 13.6732 3.00012 13.5009 3C13.1528 2.99977 12.8188 3.13783 12.5725 3.3838C12.3262 3.62978 12.1877 3.96353 12.1875 4.31163V6.93838H6.5C5.57205 6.93838 4.68207 7.30688 4.02574 7.96288C3.36942 8.61888 3.00046 9.50867 3 10.4366V41.4991C3 42.4274 3.36875 43.3176 4.02513 43.974C4.6815 44.6304 5.57174 44.9991 6.5 44.9991H41.5C42.4283 44.9991 43.3185 44.6304 43.9749 43.974C44.6312 43.3176 45 42.4274 45 41.4991V10.4366C44.9995 9.50867 44.6306 8.61888 43.9743 7.96288C43.3179 7.30688 42.428 6.93838 41.5 6.93838ZM42.375 41.5009C42.375 41.7326 42.2831 41.9549 42.1193 42.119C41.9556 42.283 41.7335 42.3754 41.5017 42.3759H6.5C6.26794 42.3759 6.04538 42.2837 5.88128 42.1196C5.71719 41.9555 5.625 41.7329 5.625 41.5009V10.4384C5.62546 10.2066 5.71786 9.9845 5.8819 9.82079C6.04594 9.65707 6.26824 9.56512 6.5 9.56513H12.1875V12.1901C12.1873 12.5382 12.3253 12.8722 12.5713 13.1185C12.8173 13.3648 13.151 13.5033 13.4991 13.5035C13.8472 13.5037 14.1812 13.3657 14.4275 13.1197C14.6738 12.8737 14.8123 12.54 14.8125 12.1919V9.56513H22.6875V12.1901C22.6873 12.5382 22.8253 12.8722 23.0713 13.1185C23.3173 13.3648 23.651 13.5033 23.9991 13.5035C24.3472 13.5037 24.6812 13.3657 24.9275 13.1197C25.1738 12.8737 25.3123 12.54 25.3125 12.1919V9.56513H33.1875V12.1901C33.1873 12.5382 33.3253 12.8722 33.5713 13.1185C33.8173 13.3648 34.151 13.5033 34.4991 13.5035C34.8472 13.5037 35.1812 13.3657 35.4275 13.1197C35.6738 12.8737 35.8123 12.54 35.8125 12.1919V9.56513H41.5C41.7315 9.56559 41.9533 9.65774 42.117 9.82141C42.2806 9.98507 42.3728 10.2069 42.3733 10.4384L42.375 41.5009Z" fill="black"/>
<path d="M12 19H17.25V22.9375H12V19ZM12 25.5625H17.25V29.5H12V25.5625ZM12 32.125H17.25V36.0625H12V32.125ZM21.1875 32.125H26.4375V36.0625H21.1875V32.125ZM21.1875 25.5625H26.4375V29.5H21.1875V25.5625ZM21.1875 19H26.4375V22.9375H21.1875V19ZM30.375 32.125H35.625V36.0625H30.375V32.125ZM30.375 25.5625H35.625V29.5H30.375V25.5625ZM30.375 19H35.625V22.9375H30.375V19Z" fill="black"/>
</svg>
