<svg width="43" height="44" viewBox="0 0 43 44" fill="none" xmlns="http://www.w3.org/2000/svg">
<path d="M13.2835 37.0933L10.463 42.2841" stroke="black" stroke-width="3" stroke-linecap="round" stroke-linejoin="round"/>
<path d="M30.2108 37.0933L33.0312 42.2841" stroke="black" stroke-width="3" stroke-linecap="round" stroke-linejoin="round"/>
<path d="M21.7471 39.4068C31.0952 39.4068 38.6733 31.6772 38.6733 22.1421C38.6733 12.6071 31.0952 4.87744 21.7471 4.87744C12.3991 4.87744 4.82095 12.6071 4.82095 22.1421C4.82095 31.6772 12.3991 39.4068 21.7471 39.4068Z" stroke="black" stroke-width="3" stroke-linecap="round" stroke-linejoin="round"/>
<path d="M5.3873 17.5398C4.08785 16.5463 3.09605 15.1925 2.53026 13.6399C1.96447 12.0872 1.84858 10.4013 2.19641 8.78335C2.54425 7.16538 3.34112 5.68364 4.49194 4.51495C5.64276 3.34626 7.09893 2.53997 8.68669 2.1923C10.2745 1.84462 11.9268 1.97024 13.4465 2.55416C14.9661 3.13809 16.289 4.15566 17.2573 5.48545" stroke="black" stroke-width="3" stroke-linecap="round" stroke-linejoin="round"/>
<path d="M21.7471 4.87744L21.7471 2" stroke="black" stroke-width="3" stroke-linecap="round" stroke-linejoin="round"/>
<path d="M21.7471 13.5098V22.1421" stroke="black" stroke-width="3" stroke-linecap="round" stroke-linejoin="round"/>
<path d="M21.7471 22.1421L27.7314 28.2461" stroke="black" stroke-width="3" stroke-linecap="round" stroke-linejoin="round"/>
<path d="M38.107 17.5398C39.4064 16.5463 40.3982 15.1925 40.964 13.6399C41.5298 12.0872 41.6457 10.4013 41.2978 8.78335C40.95 7.16538 40.1531 5.68364 39.0023 4.51495C37.8515 3.34626 36.3953 2.53997 34.8076 2.1923C33.2198 1.84462 31.5675 1.97024 30.0478 2.55416C28.5281 3.13809 27.2052 4.15566 26.237 5.48545" stroke="black" stroke-width="3" stroke-linecap="round" stroke-linejoin="round"/>
</svg>
