<svg width="48" height="42" viewBox="0 0 48 42" fill="none" xmlns="http://www.w3.org/2000/svg">
<path d="M15.0013 0C13.8193 -2.75284e-08 12.6488 0.257296 11.5568 0.757198C10.4648 1.2571 9.47256 1.98982 8.63676 2.91352C7.80096 3.83721 7.13797 4.9338 6.68564 6.14068C6.23331 7.34755 6.0005 8.64106 6.0005 9.94737C6.0005 11.2537 6.23331 12.5472 6.68564 13.7541C7.13797 14.9609 7.80096 16.0575 8.63676 16.9812C9.47256 17.9049 10.4648 18.6376 11.5568 19.1375C12.6488 19.6374 13.8193 19.8947 15.0013 19.8947C17.3884 19.8947 19.6778 18.8467 21.3657 16.9812C23.0537 15.1157 24.002 12.5856 24.002 9.94737C24.002 7.30916 23.0537 4.77901 21.3657 2.91352C19.6778 1.04802 17.3884 5.5596e-08 15.0013 0ZM9.00075 9.94737C9.00075 9.0765 9.15596 8.21415 9.45751 7.40957C9.75906 6.60499 10.2011 5.87393 10.7583 5.25813C11.3155 4.64233 11.9769 4.15386 12.705 3.82059C13.433 3.48732 14.2133 3.31579 15.0013 3.31579C15.7892 3.31579 16.5695 3.48732 17.2975 3.82059C18.0256 4.15386 18.687 4.64233 19.2442 5.25813C19.8014 5.87393 20.2434 6.60499 20.545 7.40957C20.8465 8.21415 21.0017 9.0765 21.0017 9.94737C21.0017 11.7062 20.3696 13.3929 19.2442 14.6366C18.1189 15.8803 16.5927 16.5789 15.0013 16.5789C13.4098 16.5789 11.8836 15.8803 10.7583 14.6366C9.63294 13.3929 9.00075 11.7062 9.00075 9.94737ZM36.003 4.42105C34.1463 4.42105 32.3657 5.23618 31.0528 6.68712C29.74 8.13806 29.0024 10.106 29.0024 12.1579C29.0024 14.2098 29.74 16.1777 31.0528 17.6287C32.3657 19.0796 34.1463 19.8947 36.003 19.8947C37.8597 19.8947 39.6403 19.0796 40.9532 17.6287C42.266 16.1777 43.0036 14.2098 43.0036 12.1579C43.0036 10.106 42.266 8.13806 40.9532 6.68712C39.6403 5.23618 37.8597 4.42105 36.003 4.42105ZM32.0027 12.1579C32.0027 10.9854 32.4241 9.86085 33.1743 9.03174C33.9245 8.20263 34.942 7.73684 36.003 7.73684C37.064 7.73684 38.0815 8.20263 38.8317 9.03174C39.5819 9.86085 40.0033 10.9854 40.0033 12.1579C40.0033 13.3304 39.5819 14.4549 38.8317 15.284C38.0815 16.1132 37.064 16.5789 36.003 16.5789C34.942 16.5789 33.9245 16.1132 33.1743 15.284C32.4241 14.4549 32.0027 13.3304 32.0027 12.1579ZM0 29.2895C0 27.9704 0.474145 26.7053 1.31813 25.7725C2.16211 24.8398 3.3068 24.3158 4.50037 24.3158H25.5021C26.6957 24.3158 27.8404 24.8398 28.6844 25.7725C29.5284 26.7053 30.0025 27.9704 30.0025 29.2895V30.4633C29.9999 30.6421 29.9886 30.8207 29.9685 30.9982C29.9234 31.4542 29.8499 31.9062 29.7485 32.3511C29.4178 33.8026 28.8282 35.1666 28.0143 36.3632C25.9862 39.354 22.1178 42 15.0013 42C7.88466 42 4.01633 39.354 1.98817 36.3632C1.17501 35.1665 0.586127 33.8025 0.256021 32.3511C0.125426 31.7732 0.041754 31.1836 0.00600054 30.5893C0.00350789 30.5473 0.00150751 30.5053 0 30.4633V29.2895ZM3.00025 30.3837V30.4235L3.01825 30.6445C3.03825 30.8523 3.07826 31.164 3.16626 31.5464C3.39946 32.5689 3.8142 33.5299 4.38636 34.3737C5.73448 36.3565 8.61672 38.6842 15.0013 38.6842C21.3858 38.6842 24.268 36.3565 25.6141 34.3737C26.3142 33.3436 26.6622 32.3135 26.8342 31.5464C26.9182 31.178 26.9738 30.8023 27.0002 30.4235L27.0023 30.3837V29.2895C27.0023 28.8498 26.8442 28.4281 26.5629 28.1172C26.2815 27.8062 25.9 27.6316 25.5021 27.6316H4.50037C4.10252 27.6316 3.72095 27.8062 3.43963 28.1172C3.1583 28.4281 3.00025 28.8498 3.00025 29.2895V30.3837ZM30.2025 36.7389C31.7486 37.2628 33.6568 37.5789 35.999 37.5789C41.5395 37.5789 44.6357 35.8194 46.3179 33.6973C46.9905 32.8575 47.4888 31.8654 47.778 30.7904C47.8922 30.3564 47.9653 29.9104 47.996 29.4597L48 29.3558V29.2895C48 27.9704 47.5259 26.7053 46.6819 25.7725C45.8379 24.8398 44.6932 24.3158 43.4996 24.3158H30.1905C30.9786 25.2243 31.5546 26.3627 31.8267 27.6316H43.5016C43.896 27.6315 44.2746 27.8032 44.5554 28.1093C44.8361 28.4155 44.9965 28.8315 45.0018 29.2674C44.984 29.468 44.9492 29.6664 44.8977 29.8598C44.7304 30.4722 44.4437 31.0366 44.0577 31.5133C43.1156 32.7069 40.9634 34.2632 35.999 34.2632C34.1168 34.2632 32.6387 34.0399 31.4766 33.6951C31.1683 34.7644 30.7403 35.787 30.2025 36.7389Z" fill="black"/>
</svg>
